<svg width="96" height="96" viewBox="0 0 96 96" fill="none" xmlns="http://www.w3.org/2000/svg">
<g clip-path="url(#clip0_1725_3783)">
<path d="M74.9641 26.32C74.2521 26.32 73.5401 26.072 72.9681 25.56C66.0561 19.396 57.1881 16 48.0001 16C38.8121 16 29.9441 19.396 23.0321 25.56C21.7961 26.656 19.8961 26.56 18.7961 25.316C17.6921 24.08 17.8001 22.18 19.0401 21.08C27.0521 13.936 37.3361 10 48.0001 10C58.6641 10 68.9481 13.936 76.9601 21.08C78.2001 22.184 78.3081 24.08 77.2041 25.316C76.6121 25.98 75.7881 26.32 74.9641 26.32Z" fill="#FFBA71"/>
<path d="M79.0041 41.5641C78.0481 41.5641 77.1081 41.1081 76.5281 40.2601C70.0241 30.7881 59.3601 25.1321 48.0001 25.1321C36.6401 25.1321 25.9761 30.7881 19.4721 40.2641C18.5361 41.6241 16.6761 41.9881 15.3001 41.0401C13.9361 40.1041 13.5881 38.2361 14.5281 36.8721C22.1481 25.7601 34.6601 19.1321 48.0001 19.1321C61.3401 19.1321 73.8521 25.7641 81.4721 36.8681C82.4081 38.2321 82.0601 40.1001 80.7001 41.0361C80.1801 41.3961 79.5841 41.5641 79.0041 41.5641Z" fill="#FFBA71"/>
<path d="M40.4679 86.0001C39.7079 86.0001 38.9439 85.7121 38.3599 85.1361C37.8319 84.6161 25.4199 72.2161 25.4199 60.1761C25.4199 47.6121 35.5479 37.3921 48.0039 37.3921C60.4599 37.3921 70.5879 47.6121 70.5879 60.1761C70.5879 61.8321 69.2439 63.1761 67.5879 63.1761C65.9319 63.1761 64.5879 61.8321 64.5879 60.1761C64.5879 50.9241 57.1519 43.3921 48.0039 43.3921C38.8559 43.3921 31.4199 50.9201 31.4199 60.1761C31.4199 69.7041 42.4719 80.7601 42.5799 80.8681C43.7559 82.0361 43.7679 83.9321 42.6039 85.1121C42.0159 85.7041 41.2439 86.0001 40.4679 86.0001Z" fill="#FFBA71"/>
<path d="M55.532 85.9999C49.62 85.9999 35.924 75.0439 34.6 62.8399C34.128 58.4399 35.484 54.0919 38.32 50.9159C40.832 48.0999 44.244 46.5399 47.932 46.5199C51.66 46.5959 54.948 47.8999 57.516 50.4559C60.116 53.0399 61.548 56.4919 61.548 60.1719V61.6919C61.548 65.0719 64.26 67.8239 67.588 67.8239C70.916 67.8239 73.628 65.0719 73.628 61.6919V61.1599C73.628 46.9839 63.124 35.1879 49.716 34.3159C42.56 33.8359 35.8 36.2799 30.592 41.1559C25.372 46.0479 22.376 52.9799 22.376 60.1719C22.376 66.1839 24.46 72.0399 28.236 76.6639C29.284 77.9479 29.092 79.8359 27.812 80.8839C26.528 81.9359 24.64 81.7399 23.588 80.4599C18.94 74.7679 16.376 67.5599 16.376 60.1719C16.376 51.3239 20.064 42.7959 26.488 36.7759C32.92 30.7519 41.328 27.7519 50.096 28.3279C66.652 29.4119 79.616 43.8319 79.616 61.1599V61.6919C79.616 68.3799 74.212 73.8239 67.576 73.8239C60.94 73.8239 55.536 68.3839 55.536 61.6919V60.1719C55.536 58.0999 54.732 56.1599 53.276 54.7079C51.86 53.2959 49.984 52.5199 47.996 52.5199C47.98 52.5199 47.968 52.5199 47.956 52.5199C45.436 52.5319 43.756 53.8279 42.788 54.9119C41.104 56.7999 40.272 59.5199 40.56 62.1959C41.56 71.3759 52.612 79.9999 55.532 79.9999C57.188 79.9999 58.532 81.3439 58.532 82.9999C58.532 84.6559 57.188 85.9999 55.532 85.9999Z" fill="#FFBA71"/>
<path d="M64.384 81.4361C55.52 81.4361 44.812 71.2721 44.812 58.6521C44.812 56.9961 46.156 55.6521 47.812 55.6521C49.468 55.6521 50.812 56.9961 50.812 58.6521C50.812 67.9161 59.024 75.4361 64.384 75.4361C66.04 75.4361 67.384 76.7801 67.384 78.4361C67.384 80.0921 66.04 81.4361 64.384 81.4361Z" fill="#FFBA71"/>
<path d="M92.0002 34.784C89.7882 34.784 88.0002 32.992 88.0002 30.784V11.824C88.0002 9.716 86.2842 8 84.1802 8H65.2202C63.0082 8 61.2202 6.208 61.2202 4C61.2202 1.792 63.0082 0 65.2202 0H84.1802C90.7002 0 96.0002 5.304 96.0002 11.824V30.784C96.0002 32.992 94.2122 34.784 92.0002 34.784Z" fill="#525CA0"/>
<path d="M4 34.784C1.788 34.784 0 32.992 0 30.784V11.824C0 5.304 5.3 0 11.82 0H30.78C32.992 0 34.78 1.792 34.78 4C34.78 6.208 32.992 8 30.78 8H11.82C9.716 8 8 9.716 8 11.824V30.784C8 32.992 6.212 34.784 4 34.784Z" fill="#525CA0"/>
<path d="M84.1802 96.0001H65.2202C63.0082 96.0001 61.2202 94.2081 61.2202 92.0001C61.2202 89.7921 63.0082 88.0001 65.2202 88.0001H84.1802C86.2842 88.0001 88.0002 86.2841 88.0002 84.1761V65.2161C88.0002 63.0081 89.7882 61.2161 92.0002 61.2161C94.2122 61.2161 96.0002 63.0081 96.0002 65.2161V84.1761C96.0002 90.6961 90.7002 96.0001 84.1802 96.0001Z" fill="#525CA0"/>
<path d="M30.78 96.0001H11.82C5.3 96.0001 0 90.6961 0 84.1761V65.2161C0 63.0081 1.788 61.2161 4 61.2161C6.212 61.2161 8 63.0081 8 65.2161V84.1761C8 86.2841 9.716 88.0001 11.82 88.0001H30.78C32.992 88.0001 34.78 89.7921 34.78 92.0001C34.78 94.2081 32.992 96.0001 30.78 96.0001Z" fill="#525CA0"/>
</g>
<defs>
<clipPath id="clip0_1725_3783">
<rect width="96" height="96" fill="white"/>
</clipPath>
</defs>
</svg>
