<svg width="16" height="20" viewBox="0 0 16 20" fill="none" xmlns="http://www.w3.org/2000/svg">
<path d="M15.2517 12.3397C14.4752 11.1054 14.1094 9.65684 14.2069 8.2018C14.2069 3.4549 12 0.841797 8 0.841797C4 0.841797 1.7931 3.4549 1.7931 8.20387C1.89058 9.65891 1.52482 11.1074 0.748276 12.3418C0.277597 13.0154 0.0171976 13.8134 0 14.6349C0.0110071 14.918 0.0777515 15.1962 0.196412 15.4535C0.315072 15.7108 0.483316 15.9421 0.691513 16.1343C0.899711 16.3265 1.14377 16.4757 1.40972 16.5735C1.67567 16.6712 1.95828 16.7155 2.24138 16.7039H5.4869C5.50227 17.3602 5.7738 17.9845 6.24342 18.4432C6.71304 18.902 7.3435 19.1588 8 19.1588C8.6565 19.1588 9.28696 18.902 9.75658 18.4432C10.2262 17.9845 10.4977 17.3602 10.5131 16.7039H13.7586C14.0417 16.7155 14.3243 16.6712 14.5903 16.5735C14.8562 16.4757 15.1003 16.3265 15.3085 16.1343C15.5167 15.9421 15.6849 15.7108 15.8036 15.4535C15.9222 15.1962 15.989 14.918 16 14.6349C15.9832 13.8126 15.7228 13.0139 15.2517 12.3397ZM8 17.7921C7.70733 17.7914 7.42621 17.6778 7.21506 17.4752C7.00392 17.2725 6.87898 16.9963 6.86621 16.7039H9.13379C9.12102 16.9963 8.99608 17.2725 8.78494 17.4752C8.57379 17.6778 8.29267 17.7914 8 17.7921ZM13.7586 15.3246H2.24138C2.07034 15.3246 1.37931 15.2025 1.37931 14.6349C1.39871 14.0593 1.5931 13.5034 1.93655 13.0411C2.83631 11.5942 3.26788 9.90502 3.17241 8.20387C3.17241 4.23421 4.79655 2.22111 8 2.22111C11.2034 2.22111 12.8276 4.23421 12.8276 8.20387C12.7321 9.90502 13.1637 11.5942 14.0634 13.0411C14.407 13.5036 14.6014 14.0598 14.6207 14.6356C14.6207 15.2025 13.931 15.3246 13.7586 15.3246Z" fill="white"/>
</svg>
