<svg width="48" height="48" viewBox="0 0 48 48" fill="none" xmlns="http://www.w3.org/2000/svg">
<rect width="48" height="48" rx="24" fill="#FFF8F1"/>
<g clip-path="url(#clip0_280_1902)">
<path fill-rule="evenodd" clip-rule="evenodd" d="M32.4 19.2014L36 24.0014H33.6C33.6 29.3032 29.3019 33.6014 24.0001 33.6014C21.6902 33.6014 19.5708 32.7856 18.0211 31.3458L19.4548 29.5025C20.6545 30.5804 22.2548 31.2013 24.0001 31.2013C27.9765 31.2013 31.2001 27.9778 31.2001 24.0014H28.8L32.4 19.2014ZM15.7429 28.6094L15.6 28.7998L12 23.9999H14.4C14.4 18.6978 18.698 14.3999 24 14.3999C26.3099 14.3999 28.4292 15.2157 29.9789 16.6554L28.5452 18.4988C27.3455 17.4209 25.7453 16.8 24 16.8C20.123 16.8 16.9618 19.8639 16.7999 23.9999H19.2L17.309 26.5212L15.7429 28.6094Z" fill="#EA943E"/>
</g>
<defs>
<clipPath id="clip0_280_1902">
<rect width="24" height="24" fill="white" transform="translate(12 12)"/>
</clipPath>
</defs>
</svg>
