<svg width="8" height="12" viewBox="0 0 8 12" fill="none" xmlns="http://www.w3.org/2000/svg">
<path d="M4.73982 2.56513V2.91435C4.73982 4.68154 4.74216 9.4417 4.73982 11.2089C4.73982 11.7995 4.23122 12.1534 3.70154 11.9401C3.41091 11.8229 3.25622 11.5722 3.25622 11.1995C3.25388 9.43935 3.25622 4.69092 3.25622 2.93076V2.56982C3.1531 2.66123 3.08747 2.71513 3.02888 2.77607C2.54138 3.26826 2.05857 3.76045 1.56872 4.25263C1.3531 4.46826 1.09529 4.55498 0.792942 4.4706C0.507004 4.39326 0.335911 4.20342 0.272629 3.91982C0.211692 3.64795 0.286692 3.40185 0.481223 3.20732C1.47029 2.21357 2.45935 1.22451 3.4531 0.23779C3.77654 -0.0809603 4.22654 -0.076273 4.55232 0.244822C5.54138 1.22451 6.52575 2.20888 7.50544 3.19795C7.82419 3.52138 7.82185 4.01123 7.52185 4.29951C7.22185 4.58779 6.75075 4.56904 6.42263 4.24326C5.93747 3.76045 5.46169 3.2706 4.98122 2.78545C4.9156 2.72217 4.84997 2.66592 4.73982 2.56513Z" fill="#23295E"/>
</svg>
