<svg width="13" height="12" viewBox="0 0 13 12" fill="none" xmlns="http://www.w3.org/2000/svg">
<g id="Group">
<g id="Group_2">
<path id="Vector" d="M12.4903 9.12381L8.07463 1.00672C7.36519 -0.187643 5.63577 -0.18923 4.92536 1.00672L0.509934 9.12381C-0.215311 10.3442 0.662741 11.8897 2.0842 11.8897H10.9157C12.3359 11.8897 13.2155 10.3455 12.4903 9.12381ZM6.5 10.4249C6.09624 10.4249 5.76758 10.0962 5.76758 9.69244C5.76758 9.28868 6.09624 8.96002 6.5 8.96002C6.90376 8.96002 7.23242 9.28868 7.23242 9.69244C7.23242 10.0962 6.90376 10.4249 6.5 10.4249ZM7.23242 7.49517C7.23242 7.89893 6.90376 8.22759 6.5 8.22759C6.09624 8.22759 5.76758 7.89893 5.76758 7.49517V3.83306C5.76758 3.4293 6.09624 3.10064 6.5 3.10064C6.90376 3.10064 7.23242 3.4293 7.23242 3.83306V7.49517Z" fill="white"/>
</g>
</g>
</svg>
