<svg width="40" height="40" viewBox="0 0 40 40" fill="none" xmlns="http://www.w3.org/2000/svg">
<rect width="40" height="40" rx="20" fill="#FFF9F3"/>
<g clip-path="url(#clip0_306_3402)">
<path d="M31.5013 24.9977L23.0233 9.41292C21.6612 7.11974 18.3407 7.1167 16.9767 9.41292L8.49907 24.9977C7.1066 27.341 8.79246 30.3082 11.5217 30.3082H28.478C31.2049 30.3082 32.8938 27.3434 31.5013 24.9977ZM20 27.4957C19.2248 27.4957 18.5937 26.8647 18.5937 26.0895C18.5937 25.3143 19.2248 24.6832 20 24.6832C20.7752 24.6832 21.4062 25.3143 21.4062 26.0895C21.4062 26.8647 20.7752 27.4957 20 27.4957ZM21.4062 21.8707C21.4062 22.646 20.7752 23.277 20 23.277C19.2248 23.277 18.5937 22.646 18.5937 21.8707V14.8395C18.5937 14.0643 19.2248 13.4332 20 13.4332C20.7752 13.4332 21.4062 14.0643 21.4062 14.8395V21.8707Z" fill="#EA943E"/>
</g>
<defs>
<clipPath id="clip0_306_3402">
<rect width="24" height="24" fill="white" transform="translate(8 7)"/>
</clipPath>
</defs>
</svg>
