<svg width="256" height="256" viewBox="0 0 256 256" fill="none" xmlns="http://www.w3.org/2000/svg">
<path d="M128 0C117.909 0 109.714 8.19497 109.714 18.2857V52.5446C115.59 51.1227 121.69 50.2857 128 50.2857C134.31 50.2857 140.41 51.1227 146.286 52.5446V18.2857C146.286 8.19497 138.091 0 128 0ZM50.4196 32.1429C45.7392 32.1429 41.0587 33.9235 37.4911 37.4911C30.3558 44.6263 30.3558 56.213 37.4911 63.3482L61.7232 87.5804C68.1703 77.0404 77.0404 68.1703 87.5804 61.7232L63.3482 37.4911C59.7806 33.9235 55.1001 32.1429 50.4196 32.1429ZM205.58 32.1429C200.9 32.1429 196.219 33.9235 192.652 37.4911L168.42 61.7232C178.96 68.1703 187.83 77.0404 194.277 87.5804L218.509 63.3482C225.644 56.213 225.644 44.6263 218.509 37.4911C214.941 33.9235 210.261 32.1429 205.58 32.1429ZM128 54.8571C87.5772 54.8571 54.8571 87.5772 54.8571 128C54.8571 168.423 87.5772 201.143 128 201.143C168.423 201.143 201.143 168.423 201.143 128C201.143 87.5772 168.423 54.8571 128 54.8571ZM128 73.1429C158.27 73.1429 182.857 97.7303 182.857 128C182.857 158.27 158.27 182.857 128 182.857C97.7303 182.857 73.1429 158.27 73.1429 128C73.1429 97.7303 97.7303 73.1429 128 73.1429ZM128 77.7143C100.201 77.7143 77.7143 100.201 77.7143 128C77.7143 155.799 100.201 178.286 128 178.286C155.799 178.286 178.286 155.799 178.286 128C178.286 100.201 155.799 77.7143 128 77.7143ZM18.2857 109.714C8.19497 109.714 0 117.909 0 128C0 138.091 8.19497 146.286 18.2857 146.286H52.5446C51.1227 140.41 50.2857 134.31 50.2857 128C50.2857 121.69 51.1227 115.59 52.5446 109.714H18.2857ZM128 109.714C138.072 109.714 146.286 117.928 146.286 128C146.286 138.072 138.072 146.286 128 146.286C117.928 146.286 109.714 138.072 109.714 128C109.714 117.928 117.928 109.714 128 109.714ZM203.455 109.714C204.877 115.59 205.714 121.69 205.714 128C205.714 134.31 204.877 140.41 203.455 146.286H237.714C247.805 146.286 256 138.091 256 128C256 117.909 247.805 109.714 237.714 109.714H203.455ZM128 114.286C120.399 114.286 114.286 120.399 114.286 128C114.286 135.601 120.399 141.714 128 141.714C135.601 141.714 141.714 135.601 141.714 128C141.714 120.399 135.601 114.286 128 114.286ZM61.7232 168.42L37.4911 192.652C30.3558 199.787 30.3558 211.374 37.4911 218.509C44.6263 225.644 56.213 225.644 63.3482 218.509L87.5804 194.277C77.0404 187.83 68.1703 178.96 61.7232 168.42ZM194.277 168.42C187.83 178.96 178.96 187.83 168.42 194.277L192.652 218.509C199.787 225.644 211.374 225.644 218.509 218.509C225.644 211.374 225.644 199.787 218.509 192.652L194.277 168.42ZM109.714 203.455V237.714C109.714 247.805 117.909 256 128 256C138.091 256 146.286 247.805 146.286 237.714V203.455C140.41 204.877 134.31 205.714 128 205.714C121.69 205.714 115.59 204.877 109.714 203.455Z" fill="#525CA0"/>
</svg>
